<?xml version="1.0" standalone="no"?>
<!DOCTYPE svg PUBLIC "-//W3C//DTD SVG 20010904//EN"
 "http://www.w3.org/TR/2001/REC-SVG-20010904/DTD/svg10.dtd">
<svg version="1.0" xmlns="http://www.w3.org/2000/svg"
 width="40.000000pt" height="40.000000pt" viewBox="0 0 40.000000 40.000000"
 preserveAspectRatio="xMidYMid meet">
<metadata>
Created by potrace 1.16, written by Peter Selinger 2001-2019
</metadata>
<g transform="translate(0.000000,40.000000) scale(0.100000,-0.100000)"
fill="#000000" stroke="none">
<path d="M118 360 c-69 -37 -106 -114 -93 -192 9 -52 64 -114 115 -129 67 -20
70 -15 70 119 l0 118 45 2 c51 2 75 -21 75 -73 0 -49 -26 -78 -66 -73 l-34 4
0 -48 c0 -43 2 -48 22 -48 12 0 39 19 64 44 66 69 70 147 13 228 -20 28 -87
67 -116 68 -10 0 -13 -31 -13 -124 l0 -123 -37 -6 c-45 -8 -80 12 -89 48 -15
59 32 118 75 95 20 -10 21 -8 21 50 0 33 -3 60 -7 60 -5 -1 -24 -10 -45 -20z"/>
</g>
</svg>
